<?xml version="1.0" standalone="no"?>
<!DOCTYPE svg PUBLIC "-//W3C//DTD SVG 20010904//EN"
 "http://www.w3.org/TR/2001/REC-SVG-20010904/DTD/svg10.dtd">
<svg version="1.0" xmlns="http://www.w3.org/2000/svg"
 width="135.000000pt" height="55.000000pt" viewBox="0 0 135.000000 55.000000"
 preserveAspectRatio="xMidYMid meet">
<metadata>
Created by potrace 1.16, written by Peter Selinger 2001-2019
</metadata>
<g transform="translate(0.000000,55.000000) scale(0.100000,-0.100000)"
fill="#000000" stroke="none">
<path d="M143 413 c-49 -65 -93 -124 -97 -131 -7 -12 145 -230 182 -259 24
-20 246 -18 262 2 10 12 -5 15 -117 18 l-128 3 132 2 c175 3 188 21 16 24
l-128 2 135 6 c100 4 134 8 132 17 -1 7 3 13 9 13 7 0 18 8 25 18 30 38 20 42
-118 42 l-133 1 -38 49 -38 50 43 55 43 55 133 0 133 0 -18 30 c-9 17 -23 30
-31 30 -7 0 -10 5 -6 11 3 6 3 14 -2 18 -5 3 -17 18 -27 34 l-17 27 -129 0
-129 0 -89 -117z"/>
<path d="M327 353 c-21 -6 -47 -53 -47 -86 0 -13 9 -36 21 -51 16 -21 29 -26
63 -26 61 0 104 50 55 65 -14 5 -25 1 -33 -11 -19 -26 -46 -11 -46 25 0 37 15
47 45 31 23 -12 55 -8 55 7 -2 32 -67 59 -113 46z"/>
<path d="M497 343 c-6 -10 -57 -143 -57 -149 0 -2 14 -4 30 -4 17 0 30 5 30
10 0 6 11 10 24 10 14 0 28 -4 31 -10 3 -5 19 -10 35 -10 l29 0 -28 78 c-26
71 -31 77 -59 80 -16 2 -32 -1 -35 -5z"/>
<path d="M760 270 l0 -80 70 0 c63 0 70 2 70 20 0 17 -7 20 -40 20 -30 0 -40
4 -40 16 0 13 8 15 40 12 36 -3 40 -1 38 17 -2 15 -13 22 -43 26 l-40 6 43 2
c35 1 42 4 42 21 0 18 -7 20 -70 20 l-70 0 0 -80z"/>
</g>
</svg>
