<?xml version="1.0" encoding="UTF-8" standalone="no"?> <svg width="64" height="64" viewBox="0 0 64 64" fill="none" xmlns="http://www.w3.org/2000/svg">
<path d="M19 50C18.0111 50 17.0444 50.2932 16.2222 50.8427C15.3999 51.3921 14.759 52.173 14.3806 53.0866C14.0022 54.0002 13.9031 55.0055 14.0961 55.9755C14.289 56.9454 14.7652 57.8363 15.4645 58.5355C16.1637 59.2348 17.0546 59.711 18.0246 59.9039C18.9945 60.0969 19.9998 59.9978 20.9134 59.6194C21.8271 59.241 22.6079 58.6001 23.1574 57.7779C23.7068 56.9556 24 55.9889 24 55C24 54.3434 23.8707 53.6932 23.6194 53.0866C23.3681 52.48 22.9998 51.9288 22.5355 51.4645C22.0712 51.0002 21.52 50.6319 20.9134 50.3806C20.3068 50.1293 19.6566 50 19 50ZM19 58C18.4067 58 17.8266 57.8241 17.3333 57.4944C16.8399 57.1648 16.4554 56.6962 16.2284 56.148C16.0013 55.5999 15.9419 54.9967 16.0576 54.4147C16.1734 53.8328 16.4591 53.2982 16.8787 52.8787C17.2982 52.4591 17.8328 52.1734 18.4147 52.0576C18.9967 51.9419 19.5999 52.0013 20.1481 52.2284C20.6962 52.4554 21.1648 52.8399 21.4944 53.3333C21.8241 53.8266 22 54.4067 22 55C22 55.7956 21.6839 56.5587 21.1213 57.1213C20.5587 57.6839 19.7957 58 19 58Z" fill="black"/>
<path d="M19 56C19.5523 56 20 55.5523 20 55C20 54.4477 19.5523 54 19 54C18.4477 54 18 54.4477 18 55C18 55.5523 18.4477 56 19 56Z" fill="black"/>
<path d="M25.32 52H38V46H4V52H12.68C13.2467 50.8034 14.1415 49.7923 15.2603 49.0842C16.3791 48.3762 17.676 48.0003 19 48.0003C20.324 48.0003 21.6209 48.3762 22.7397 49.0842C23.8585 49.7923 24.7533 50.8034 25.32 52V52Z" fill="black"/>
<path d="M4 54V55C4 55.2652 4.10536 55.5196 4.29289 55.7071C4.48043 55.8946 4.73478 56 5 56H12.08C11.9733 55.3376 11.9733 54.6624 12.08 54H4Z" fill="black"/>
<path d="M25.9199 54C26.0266 54.6624 26.0266 55.3376 25.9199 56H43.0799C42.9733 55.3376 42.9733 54.6624 43.0799 54H25.9199Z" fill="black"/>
<path d="M50 50C49.0111 50 48.0444 50.2932 47.2222 50.8427C46.3999 51.3921 45.759 52.173 45.3806 53.0866C45.0022 54.0002 44.9031 55.0055 45.0961 55.9755C45.289 56.9454 45.7652 57.8363 46.4645 58.5355C47.1637 59.2348 48.0546 59.711 49.0245 59.9039C49.9945 60.0969 50.9998 59.9978 51.9134 59.6194C52.8271 59.241 53.6079 58.6001 54.1574 57.7779C54.7068 56.9556 55 55.9889 55 55C55 53.6739 54.4732 52.4021 53.5355 51.4645C52.5979 50.5268 51.3261 50 50 50ZM50 58C49.4067 58 48.8266 57.8241 48.3333 57.4944C47.8399 57.1648 47.4554 56.6962 47.2284 56.148C47.0013 55.5999 46.9419 54.9967 47.0576 54.4147C47.1734 53.8328 47.4591 53.2982 47.8787 52.8787C48.2982 52.4591 48.8328 52.1734 49.4147 52.0576C49.9967 51.9419 50.5999 52.0013 51.1481 52.2284C51.6962 52.4554 52.1648 52.8399 52.4944 53.3333C52.8241 53.8266 53 54.4067 53 55C53 55.7956 52.6839 56.5587 52.1213 57.1213C51.5587 57.6839 50.7957 58 50 58V58Z" fill="black"/>
<path d="M56.31 52H60V50H58C57.4701 49.9984 56.9623 49.7872 56.5875 49.4125C56.2128 49.0377 56.0016 48.5299 56 48V46C56.0016 45.4701 56.2128 44.9623 56.5875 44.5875C56.9623 44.2128 57.4701 44.0016 58 44H60V42C60 41.7348 59.8946 41.4804 59.7071 41.2929C59.5196 41.1054 59.2652 41 59 41H43C42.7348 41 42.4804 40.8946 42.2929 40.7071C42.1054 40.5196 42 40.2652 42 40V32H40V52H43.69C44.2544 50.8037 45.1473 49.7925 46.2645 49.0842C47.3817 48.376 48.6772 48 50 48C51.3228 48 52.6183 48.376 53.7355 49.0842C54.8527 49.7925 55.7456 50.8037 56.31 52V52ZM45 45H43C42.7348 45 42.4804 44.8946 42.2929 44.7071C42.1054 44.5196 42 44.2652 42 44C42 43.7348 42.1054 43.4804 42.2929 43.2929C42.4804 43.1054 42.7348 43 43 43H45C45.2652 43 45.5196 43.1054 45.7071 43.2929C45.8946 43.4804 46 43.7348 46 44C46 44.2652 45.8946 44.5196 45.7071 44.7071C45.5196 44.8946 45.2652 45 45 45Z" fill="black"/>
<path d="M50 56C50.5523 56 51 55.5523 51 55C51 54.4477 50.5523 54 50 54C49.4477 54 49 54.4477 49 55C49 55.5523 49.4477 56 50 56Z" fill="black"/>
<path d="M4 16V44H38V16H27V25C26.9991 25.1801 26.9495 25.3566 26.8566 25.5108C26.7637 25.6651 26.6308 25.7914 26.4721 25.8764C26.3133 25.9614 26.1346 26.002 25.9547 25.9938C25.7748 25.9856 25.6004 25.929 25.45 25.83L23.13 24.29L21.71 25.71C21.5204 25.8959 21.2655 26.0001 21 26.0001C20.7345 26.0001 20.4796 25.8959 20.29 25.71L18.87 24.29L16.55 25.83C16.3996 25.929 16.2252 25.9856 16.0453 25.9938C15.8654 26.002 15.6867 25.9614 15.5279 25.8764C15.3692 25.7914 15.2363 25.6651 15.1434 25.5108C15.0505 25.3566 15.0009 25.1801 15 25V16H4ZM9 42H7C6.73478 42 6.48043 41.8946 6.29289 41.7071C6.10536 41.5196 6 41.2652 6 41C6 40.7348 6.10536 40.4804 6.29289 40.2929C6.48043 40.1054 6.73478 40 7 40H9C9.26522 40 9.51957 40.1054 9.70711 40.2929C9.89464 40.4804 10 40.7348 10 41C10 41.2652 9.89464 41.5196 9.70711 41.7071C9.51957 41.8946 9.26522 42 9 42ZM9 38H7C6.73478 38 6.48043 37.8946 6.29289 37.7071C6.10536 37.5196 6 37.2652 6 37C6 36.7348 6.10536 36.4804 6.29289 36.2929C6.48043 36.1054 6.73478 36 7 36H9C9.26522 36 9.51957 36.1054 9.70711 36.2929C9.89464 36.4804 10 36.7348 10 37C10 37.2652 9.89464 37.5196 9.70711 37.7071C9.51957 37.8946 9.26522 38 9 38ZM25 42H13C12.7348 42 12.4804 41.8946 12.2929 41.7071C12.1054 41.5196 12 41.2652 12 41C12 40.7348 12.1054 40.4804 12.2929 40.2929C12.4804 40.1054 12.7348 40 13 40H25C25.2652 40 25.5196 40.1054 25.7071 40.2929C25.8946 40.4804 26 40.7348 26 41C26 41.2652 25.8946 41.5196 25.7071 41.7071C25.5196 41.8946 25.2652 42 25 42ZM25.19 33.42L30.19 26.42C30.2857 26.2963 30.4084 26.1961 30.5489 26.1272C30.6893 26.0583 30.8436 26.0225 31 26.0225C31.1564 26.0225 31.3107 26.0583 31.4511 26.1272C31.5916 26.1961 31.7143 26.2963 31.81 26.42L36.81 33.42C36.9163 33.5692 36.9795 33.7448 36.9928 33.9276C37.006 34.1103 36.9688 34.2932 36.8853 34.4562C36.8017 34.6193 36.6749 34.7562 36.5188 34.8521C36.3627 34.948 36.1832 34.9992 36 35H34V41C34 41.2652 33.8946 41.5196 33.7071 41.7071C33.5196 41.8946 33.2652 42 33 42H29C28.7348 42 28.4804 41.8946 28.2929 41.7071C28.1054 41.5196 28 41.2652 28 41V35H26C25.8168 34.9992 25.6373 34.948 25.4812 34.8521C25.3251 34.7562 25.1983 34.6193 25.1147 34.4562C25.0311 34.2932 24.994 34.1103 25.0072 33.9276C25.0205 33.7448 25.0837 33.5692 25.19 33.42ZM25 36C25.2652 36 25.5196 36.1054 25.7071 36.2929C25.8946 36.4804 26 36.7348 26 37C26 37.2652 25.8946 37.5196 25.7071 37.7071C25.5196 37.8946 25.2652 38 25 38H13C12.7348 38 12.4804 37.8946 12.2929 37.7071C12.1054 37.5196 12 37.2652 12 37C12 36.7348 12.1054 36.4804 12.2929 36.2929C12.4804 36.1054 12.7348 36 13 36H25Z" fill="black"/>
<path d="M58.9999 56C59.2651 56 59.5195 55.8946 59.707 55.7071C59.8946 55.5196 59.9999 55.2652 59.9999 55V54H56.9199C57.0266 54.6624 57.0266 55.3376 56.9199 56H58.9999Z" fill="black"/>
<path d="M29.9999 34V40H31.9999V34C31.9999 33.7348 32.1053 33.4804 32.2928 33.2929C32.4804 33.1053 32.7347 33 32.9999 33H34.0599L30.9999 28.72L27.9399 33H28.9999C29.2652 33 29.5195 33.1053 29.707 33.2929C29.8946 33.4804 29.9999 33.7348 29.9999 34Z" fill="black"/>
<path d="M18.45 22.17C18.6125 22.0602 18.8039 22.001 19 22C19.2653 22.001 19.5198 22.105 19.71 22.29L21 23.59L22.29 22.29C22.454 22.1277 22.669 22.0272 22.8986 22.0053C23.1282 21.9834 23.3584 22.0416 23.55 22.17L25 23.13V16H17V23.13L18.45 22.17Z" fill="black"/>
<path d="M52.61 32.59C52.5311 32.4146 52.4033 32.2656 52.2419 32.1609C52.0805 32.0563 51.8924 32.0004 51.7 32H44V39H55.46L52.61 32.59Z" fill="black"/>
<path d="M60 46H58V48H60V46Z" fill="black"/>
</svg>
